2.2Hzhigh3min_grf.mot
version=1
nRows=25
nColumns 19
inDegrees=yes
endheader
time	1_ground_force_vx	1_ground_force_vy	1_ground_force_vz	1_ground_force_px	1_ground_force_py	1_ground_force_pz	1_ground_torque_x	1_ground_torque_y	1_ground_torque_z	2_ground_force_vx	2_ground_force_vy	2_ground_force_vz	2_ground_force_px	2_ground_force_py	2_ground_force_pz	2_ground_torque_x	2_ground_torque_y	2_ground_torque_z
            0.005000	            4.944652	          205.709461	           -5.045864	           -0.301618	            0.006203	           -0.403472	            0.006216	            0.258602	           -0.006343	           24.883423	          221.369375	           20.300957	           -0.277251	            0.005559	           -0.719158	            0.055392	            0.492784	            0.045191
            0.005500	            5.129287	          200.661468	           -4.930394	           -0.300657	            0.006204	           -0.403706	            0.009319	            0.364557	           -0.008957	           24.573880	          216.213711	           19.813418	           -0.277192	            0.005560	           -0.719202	            0.056485	            0.496988	            0.045543
            0.006000	            4.947942	          195.792293	           -4.492250	           -0.300924	            0.006205	           -0.403943	            0.010613	            0.419963	           -0.009636	           24.780930	          210.692266	           19.136633	           -0.277304	            0.005560	           -0.719390	            0.060841	            0.517280	            0.046983
            0.006500	            4.857714	          190.924119	           -4.283613	           -0.300801	            0.006201	           -0.403077	            0.009349	            0.367463	           -0.008244	           25.174715	          205.355669	           18.460425	           -0.277107	            0.005559	           -0.719042	            0.066907	            0.545773	            0.049062
            0.007000	            4.859986	          185.333721	           -3.803160	           -0.300517	            0.006204	           -0.403694	            0.007335	            0.279710	           -0.005740	           25.101331	          199.649068	           17.783103	           -0.276784	            0.005563	           -0.719612	            0.069088	            0.549504	            0.048945
            0.007500	            4.631677	          179.745637	           -3.872409	           -0.300569	            0.006208	           -0.404782	            0.007021	            0.272478	           -0.005870	           24.933143	          194.308600	           17.623343	           -0.276864	            0.005561	           -0.719249	            0.075119	            0.585413	            0.053096
            0.008000	            4.632758	          176.319803	           -3.703671	           -0.299320	            0.006202	           -0.403296	            0.005536	            0.210680	           -0.004425	           25.137576	          189.523413	           17.043043	           -0.277363	            0.005560	           -0.719465	            0.069016	            0.520344	            0.046792
            0.008500	            4.176972	          171.809927	           -2.988163	           -0.299633	            0.006200	           -0.402855	            0.005422	            0.223003	           -0.003879	           25.204945	          183.815676	           16.834942	           -0.277025	            0.005561	           -0.719339	            0.042262	            0.308208	            0.028228
            0.009000	            3.994552	          167.843653	           -2.913001	           -0.299103	            0.006199	           -0.402625	            0.007529	            0.316368	           -0.005491	           25.458018	          178.479880	           15.783369	           -0.276458	            0.005564	           -0.719699	            0.043909	            0.307832	            0.027222
            0.009500	            4.041775	          161.533971	           -2.848457	           -0.299204	            0.006205	           -0.403939	            0.010159	            0.406021	           -0.007160	           25.472496	          174.429804	           15.440417	           -0.277224	            0.005563	           -0.720167	            0.063769	            0.436677	            0.038654
            0.010000	            3.676878	          157.025488	           -2.454168	           -0.299298	            0.006204	           -0.403706	            0.006279	            0.268162	           -0.004191	           25.443281	          169.460133	           14.718775	           -0.276104	            0.005567	           -0.720240	            0.069517	            0.463002	            0.040215
            0.010500	            3.265438	          153.239043	           -2.285952	           -0.298115	            0.006203	           -0.403316	            0.002668	            0.125191	           -0.001868	           25.507268	          164.673632	           14.373175	           -0.276610	            0.005566	           -0.720293	            0.081050	            0.523256	            0.045671
            0.011000	            3.266536	          149.092343	           -2.166163	           -0.298022	            0.006198	           -0.402243	            0.002465	            0.112496	           -0.001634	           25.194439	          160.438368	           13.982777	           -0.275864	            0.005567	           -0.719938	            0.071455	            0.455028	            0.039657
            0.011500	            3.222555	          145.124523	           -1.724495	           -0.297472	            0.006202	           -0.403160	            0.002754	            0.124018	           -0.001474	           25.540109	          155.469381	           13.448688	           -0.275384	            0.005569	           -0.720015	            0.058136	            0.353890	            0.030613
            0.012000	            3.223866	          140.436829	           -1.561168	           -0.297061	            0.006201	           -0.402963	            0.004240	            0.184690	           -0.002053	           25.375101	          149.209350	           12.957146	           -0.276498	            0.005565	           -0.719901	            0.040273	            0.236812	            0.020564
            0.012500	            2.811809	          136.291032	           -1.669634	           -0.297461	            0.006201	           -0.402943	            0.005167	            0.250452	           -0.003068	           25.386920	          145.895837	           12.616823	           -0.276342	            0.005567	           -0.720524	            0.041941	            0.241029	            0.020844
            0.013000	            2.538092	          132.684486	           -1.409275	           -0.297172	            0.006205	           -0.403771	            0.004412	            0.230629	           -0.002450	           25.312227	          140.557380	           11.987742	           -0.276115	            0.005566	           -0.719739	            0.036759	            0.204119	            0.017409
            0.013500	            2.401644	          129.258625	           -1.240197	           -0.296726	            0.006197	           -0.401998	            0.003764	            0.202599	           -0.001944	           25.182871	          137.427196	           11.741992	           -0.276091	            0.005568	           -0.720527	            0.059850	            0.326610	            0.027906
            0.014000	            2.173557	          126.193081	           -1.023488	           -0.295072	            0.006194	           -0.401196	            0.002106	            0.122279	           -0.000992	           25.062618	          131.720593	           11.017761	           -0.276136	            0.005564	           -0.719430	            0.065623	            0.344892	            0.028849
            0.014500	            1.900281	          122.045148	           -0.627881	           -0.296193	            0.006193	           -0.401109	            0.000755	            0.048464	           -0.000249	           25.026256	          128.775223	           10.678771	           -0.275524	            0.005574	           -0.721485	            0.065731	            0.338225	            0.028048
            0.015000	            1.717582	          118.980400	           -0.594710	           -0.295035	            0.006197	           -0.401865	            0.000538	            0.037296	           -0.000186	           24.996647	          123.987532	           10.567852	           -0.275861	            0.005571	           -0.720930	            0.030303	            0.150310	            0.012811
            0.015500	            1.488816	          114.654569	           -0.750260	           -0.295639	            0.006197	           -0.401891	            0.000887	            0.068337	           -0.000447	           25.060549	          119.201685	           10.034539	           -0.275059	            0.005571	           -0.720229	            0.025134	            0.119552	            0.010064
            0.016000	            1.534811	          111.951183	           -0.899536	           -0.294925	            0.006196	           -0.401622	            0.002775	            0.202405	           -0.001626	           24.603205	          116.070636	            9.695071	           -0.275743	            0.005570	           -0.720682	            0.030627	            0.144491	            0.012069
            0.016500	            1.260588	          109.246555	           -0.772880	           -0.293794	            0.006192	           -0.400560	            0.003127	            0.270988	           -0.001917	           24.665178	          111.836741	            9.304514	           -0.274186	            0.005575	           -0.720425	            0.031772	            0.144059	            0.011985
            0.017000	            0.665677	          106.000871	           -0.601891	           -0.294305	            0.006196	           -0.401601	            0.000805	            0.128135	           -0.000728	           24.538543	          107.969445	            9.196920	           -0.274690	            0.005573	           -0.720404	            0.046869	            0.206223	            0.017566
